<?xml version="1.0" encoding="UTF-8"?>
<svg version="1.1" xmlns="http://www.w3.org/2000/svg" width="1080" height="1080">
<path d="M0 0 C356.4 0 712.8 0 1080 0 C1080 356.4 1080 712.8 1080 1080 C723.6 1080 367.2 1080 0 1080 C0 723.6 0 367.2 0 0 Z " fill="#FEFEFE" transform="translate(0,0)"/>
<path d="M0 0 C2.77209768 0.05502347 5.54105163 0.08162926 8.31347656 0.09277344 C40.76941207 0.94515154 76.57264396 12.00530459 104.24169922 28.74267578 C106.94392972 30.3349465 109.71355702 31.74103583 112.51879883 33.140625 C121.63515658 37.71866129 129.52635322 43.74293957 137.49316406 50.06933594 C138.31421631 50.71467285 138.31421631 50.71467285 139.15185547 51.37304688 C144.34060113 55.4605545 149.25187002 59.66217269 153.84082031 64.41308594 C155.53073942 66.10700013 157.29376312 67.64681913 159.11816406 69.19433594 C170.1295568 78.80273269 179.01924953 88.93893583 187.15136719 101.08691406 C189.03817366 103.8745539 191.0260306 106.58799236 192.99316406 109.31933594 C194.51418668 111.55854338 196.01419272 113.8029074 197.49316406 116.06933594 C197.93063965 116.73126953 198.36811523 117.39320313 198.81884766 118.07519531 C222.59804901 154.7399632 231.17186318 198.03363204 232.49316406 241.06933594 C232.56313328 242.65398655 232.63339407 244.23862435 232.70410156 245.82324219 C233.88944792 292.46206224 217.3776935 348.91715438 186.95019531 385.09643555 C184.58230286 387.96148189 182.39286417 390.90680013 180.19238281 393.90136719 C174.34082662 401.64013001 167.59745702 408.45344465 160.72607422 415.2824707 C158.61571645 417.38427363 156.52480921 419.50418597 154.43457031 421.62597656 C146.91590109 429.18365199 139.62873099 435.51740511 130.49316406 441.06933594 C129.10913731 442.02778461 127.7332069 442.99810053 126.36816406 443.98339844 C97.41478471 464.43506681 62.43416305 478.39702321 27.38549805 483.63061523 C25.42203142 483.92844165 23.46296431 484.25653005 21.5090332 484.61157227 C12.17725625 486.24669262 3.00316977 486.51152162 -6.44433594 486.50683594 C-7.28232727 486.50723877 -8.1203186 486.5076416 -8.98370361 486.50805664 C-36.0211559 486.43420296 -62.5708473 483.47992998 -88.00341797 473.96118164 C-90.42554114 473.09829731 -92.84702993 472.40431513 -95.32714844 471.72949219 C-101.93310598 469.792994 -107.97664588 466.67206502 -114.13183594 463.63183594 C-115.30746094 463.05884766 -116.48308594 462.48585938 -117.69433594 461.89550781 C-119.9692157 460.7849064 -122.24131628 459.66858961 -124.51025391 458.54589844 C-126.27306144 457.67727696 -128.04093028 456.81858107 -129.81982422 455.98339844 C-135.01915607 453.51617919 -139.52005404 450.37227751 -144.13183594 446.94433594 C-145.71601269 445.77964932 -147.30065343 444.61559355 -148.88574219 443.45214844 C-150.05387451 442.59218262 -150.05387451 442.59218262 -151.24560547 441.71484375 C-153.3025857 440.21796978 -155.37762938 438.75587985 -157.47167969 437.31152344 C-163.66665974 433.0312505 -169.29229396 428.63668551 -174.49902344 423.15136719 C-176.41826444 421.16118148 -178.40435124 419.36263171 -180.50683594 417.56933594 C-188.78036785 410.40766207 -195.71564191 402.59056753 -202.20654297 393.81396484 C-203.49475518 392.08554493 -204.80815791 390.37920405 -206.12792969 388.67480469 C-226.66301442 361.86511073 -240.14489325 331.76894887 -247.75170898 299.04418945 C-248.47892313 296.02502284 -248.47892313 296.02502284 -249.54663086 292.96142578 C-261.72154405 256.291194 -255.70019683 203.69184279 -242.30859375 168.31298828 C-241.48159439 165.99869957 -240.80465334 163.67318898 -240.13964844 161.30761719 C-234.88781667 143.46759641 -225.7993937 126.47603344 -215.50683594 111.06933594 C-214.77470621 109.94066241 -214.04291667 108.81176811 -213.31152344 107.68261719 C-211.12961223 104.40975038 -208.86303552 101.21765864 -206.50683594 98.06933594 C-206.06694336 97.47991211 -205.62705078 96.89048828 -205.17382812 96.28320312 C-190.44554063 76.8709366 -172.23223628 57.28172325 -151.46826172 44.32861328 C-149.14735055 42.83853863 -146.90546827 41.25396098 -144.65527344 39.65917969 C-120.04077635 22.35488044 -93.54245816 12.21970208 -64.31396484 5.7644043 C-61.44423195 5.09562854 -61.44423195 5.09562854 -58.46850586 4.03881836 C-40.3322552 -1.89795943 -18.90788944 -0.37843811 0 0 Z " fill="#FEFEFE" transform="translate(634.5068359375,289.9306640625)"/>
<path d="M0 0 C2.40095995 0.01533498 4.80187303 0.02344207 7.20286942 0.03083801 C45.77368907 0.19277067 81.07274377 4.57032364 117.03767776 19.02058411 C119.68034864 20.06292063 122.34371881 21.04591023 125.00870132 22.0295105 C168.19265799 37.97153602 168.19265799 37.97153602 174.92525101 49.76509094 C176.89180175 55.41317615 176.81017493 61.10595929 174.92525101 66.76509094 C172.31980338 71.3492861 169.61714961 73.45272302 164.92525101 75.76509094 C154.20176559 77.65894994 146.15025305 74.76994642 136.8670845 69.6693573 C118.42730232 59.62515365 99.09974857 52.46164232 78.92525101 46.76509094 C78.19225784 46.55714905 77.45926468 46.34920715 76.7040596 46.13496399 C53.99112509 39.81784906 31.02632301 39.10716702 7.59963608 39.02379227 C5.4068321 39.01526241 3.21414453 39.00006181 1.02138138 38.98442078 C-22.61806658 38.85637125 -47.13960642 39.98193174 -69.46537399 48.49555969 C-72.23313497 49.4690687 -74.77527128 50.19096307 -77.62162399 50.81587219 C-96.41881426 55.06296638 -113.0172616 64.07540539 -130.07474899 72.76509094 C-131.11905075 73.27419006 -132.16335251 73.78328918 -133.23929977 74.30781555 C-137.89681073 76.70153717 -142.13069979 79.68984352 -146.44974899 82.64009094 C-147.42057419 83.30266907 -148.39139938 83.96524719 -149.39164352 84.64790344 C-157.99539442 90.5887573 -166.13209446 96.97282088 -174.07474899 103.76509094 C-174.86881149 104.44055969 -175.66287399 105.11602844 -176.48099899 105.81196594 C-178.36555635 107.44225762 -180.22393922 109.09664607 -182.07474899 110.76509094 C-182.90619431 111.50501282 -183.73763962 112.24493469 -184.59428024 113.00727844 C-188.86854758 116.82470608 -193.07397628 120.65903474 -197.07474899 124.76509094 C-197.97967087 125.65454407 -197.97967087 125.65454407 -198.90287399 126.56196594 C-199.91607712 127.55970032 -199.91607712 127.55970032 -200.94974899 128.57759094 C-201.56592087 129.18216125 -202.18209274 129.78673157 -202.81693649 130.40962219 C-208.55276215 136.39353719 -213.65316317 142.69773565 -218.44974899 149.45259094 C-219.29654221 150.63921326 -219.29654221 150.63921326 -220.16044235 151.84980774 C-221.28836886 153.43307938 -222.41432244 155.01775871 -223.5381279 156.60395813 C-224.84402218 158.44059241 -226.16378876 160.26543492 -227.49271774 162.08540344 C-244.68547513 186.07384089 -256.44071735 213.50198863 -264.48637009 241.82661438 C-264.87549415 243.10862477 -265.30533994 244.37903733 -265.77640915 245.633255 C-268.49356249 252.9319632 -269.57691596 260.56488262 -270.80961227 268.22065735 C-271.19794488 270.62890272 -271.59830905 273.03491172 -272.00053024 275.44087219 C-283.53432458 345.15517964 -267.51401507 418.12832172 -228.07474899 476.76509094 C-225.49953234 480.3418897 -222.83324796 483.8412509 -220.13724899 487.32759094 C-219.47273727 488.19577454 -218.80822556 489.06395813 -218.12357712 489.95845032 C-216.77742136 491.71197814 -215.42515842 493.46083387 -214.06693649 495.20503235 C-212.79524207 496.83922202 -211.53371044 498.48140591 -210.28568649 500.13374329 C-204.68082489 507.40721641 -198.33361204 513.87850264 -191.85013962 520.36030579 C-189.96333672 522.2514718 -188.09315211 524.1580749 -186.22318649 526.06587219 C-178.39358087 533.96760367 -170.28236635 540.54928797 -161.07474899 546.76509094 C-159.71164458 547.76781378 -158.35460991 548.77893568 -157.00834274 549.80415344 C-135.72221752 565.70047451 -112.00917644 576.92145661 -87.07474899 585.76509094 C-86.33112106 586.03853333 -85.58749313 586.31197571 -84.82133102 586.59370422 C-54.04386537 597.85982939 -19.72646771 601.67767711 12.80708694 600.84321594 C16.06776503 600.76152028 19.32794509 600.71675599 22.58931351 600.67134094 C35.06794607 600.4232532 46.67613449 599.25024067 58.78755569 596.26167297 C61.56350301 595.61682637 64.35521456 595.13988543 67.16475296 594.66743469 C74.34295266 593.45407052 81.03020487 591.57941054 87.88106155 589.13447571 C90.49694773 588.22395427 93.11168765 587.41278776 95.78706741 586.69624329 C106.46013307 583.83590007 116.01487894 579.7307117 125.86275101 574.76509094 C127.28986939 574.05811695 128.71760362 573.35238475 130.14595413 572.64790344 C132.87876429 571.29771541 135.60577093 569.93685311 138.32808304 568.56562805 C140.44992111 567.49793594 142.57611865 566.45556798 144.72163773 565.43525696 C151.62737549 562.13704567 157.8691975 558.02461997 164.17525101 553.70259094 C164.72394852 553.32825928 165.27264603 552.95392761 165.83797073 552.56825256 C174.14809987 546.88620856 181.97018623 540.89960637 189.40864944 534.11958313 C191.45187775 532.29475527 193.57119328 530.57131777 195.69209671 528.83808899 C208.92542846 517.95127788 220.54699705 505.87704645 230.42549515 491.87129211 C231.53458897 490.31372213 232.66156228 488.76884864 233.79805374 487.2311554 C252.51898022 461.88933106 266.92353866 433.42372804 275.98775101 403.26509094 C276.2000032 402.57121277 276.4122554 401.87733459 276.63093948 401.16242981 C284.60065392 374.73124485 287.93869627 348.74133957 287.62868118 321.25782776 C287.6074087 318.42989122 287.62733687 315.6028136 287.64614487 312.77490711 C287.77723063 288.67745555 285.74725207 264.65729209 277.59224319 241.78755188 C276.84487133 239.52136282 276.24467874 237.24052064 275.65181351 234.92915344 C271.17667255 218.02632091 263.577132 202.82346366 255.67818069 187.30703735 C251.58070604 179.22448549 248.02837712 172.07273299 249.92525101 162.76509094 C252.40376266 158.50497341 255.42009502 154.01766893 259.92525101 151.76509094 C274.23756926 149.97799366 274.23756926 149.97799366 279.90962601 153.74946594 C295.05655016 170.52290544 304.36015978 196.41882734 311.11275101 217.70259094 C311.33254623 218.39317596 311.55234146 219.08376099 311.77879715 219.79527283 C313.23994678 224.43032689 314.60507065 229.08814055 315.92525101 233.76509094 C316.2586348 234.92154114 316.59201859 236.07799133 316.93550491 237.26948547 C318.05396745 241.41444176 319.02462469 245.56804704 319.92525101 249.76509094 C320.13874191 250.75047852 320.35223282 251.73586609 320.57219315 252.75111389 C324.89101386 273.40814563 325.7753416 293.55826279 325.68696976 314.60273743 C325.67319098 318.07417987 325.68692419 321.54362199 325.72798538 325.0148468 C326.08411955 355.39020224 322.43578129 383.72726759 313.52441025 412.79844856 C312.89295518 414.87109674 312.27754388 416.94804386 311.66530228 419.02644348 C308.77494153 428.78839206 305.07527769 438.03819138 300.92525101 447.32759094 C300.60121292 448.05922455 300.27717484 448.79085815 299.94331741 449.54466248 C290.69077994 470.3750313 279.52591015 490.13116729 265.92525101 508.45259094 C265.34775101 509.24214172 264.77025101 510.0316925 264.17525101 510.84516907 C260.33047963 516.05019996 256.26383003 520.96570474 251.92525101 525.76509094 C251.21054642 526.56257751 251.21054642 526.56257751 250.48140335 527.37617493 C246.38012581 531.91816309 242.16002358 536.34783676 237.92525101 540.76509094 C237.46322281 541.24728088 237.00119461 541.72947083 236.52516556 542.22627258 C223.82527783 555.4569437 211.38165721 568.40739778 195.92085648 578.44868469 C193.9561791 579.74468915 192.05017903 581.09820494 190.14790726 582.48384094 C161.47300676 603.21205832 127.75787621 619.3926962 93.51607132 628.08784485 C90.34646157 628.91638777 87.23523465 629.90013059 84.11275101 630.89009094 C43.85337723 642.29445567 -0.8306943 642.46190246 -42.07474899 636.76509094 C-43.92592331 636.51493225 -43.92592331 636.51493225 -45.81449509 636.25971985 C-99.54815725 628.60136878 -151.25260978 605.08558817 -192.89652634 570.4042511 C-202.76035025 562.36037564 -211.83815044 558.86597034 -224.55912399 558.99555969 C-225.89313259 558.98708733 -227.22712618 558.97590897 -228.56109238 558.96231079 C-231.45354094 558.93845808 -234.34521273 558.93314648 -237.23774338 558.94233704 C-241.93134195 558.95698604 -246.62418948 558.93005426 -251.31766891 558.89790344 C-257.39402261 558.85934848 -263.47026829 558.83192498 -269.54672527 558.81664467 C-289.06096312 558.76683065 -308.57385973 558.55894173 -328.08709145 558.36460018 C-337.01203208 558.27633743 -345.93704498 558.20190467 -354.86213493 558.13059711 C-363.07645166 558.06274626 -371.29016876 557.96449172 -379.5040226 557.85464764 C-385.09521011 557.78458129 -390.68363891 557.76200641 -396.27519703 557.78575897 C-399.63233028 557.79430856 -402.98880038 557.77218395 -406.34579659 557.74310303 C-407.87520591 557.73703492 -409.40474462 557.74463745 -410.9339962 557.76742554 C-423.72687033 557.95025885 -423.72687033 557.95025885 -428.96830368 552.96601868 C-432.42268889 548.9599151 -433.37652215 545.54350836 -433.13724899 540.32759094 C-433.12218307 539.58694397 -433.10711716 538.846297 -433.0915947 538.08320618 C-432.74634865 532.95182487 -431.46878681 530.07058651 -427.76224899 526.32759094 C-422.59728712 522.07751764 -419.17392873 520.46598504 -412.51420212 520.44624329 C-411.73838696 520.43620049 -410.96257181 520.4261577 -410.16324711 520.41581059 C-407.56083829 520.38467209 -404.95853729 520.36778928 -402.35599899 520.35102844 C-400.50017141 520.33218196 -398.64435159 520.3125567 -396.78853989 520.29220581 C-391.76270884 520.23990906 -386.73685128 520.20055669 -381.71088409 520.16399765 C-377.53636919 520.13217539 -373.36193435 520.09308319 -369.18747997 520.05422878 C-327.48387714 519.66985676 -285.77965544 519.65395581 -244.07474899 519.76509094 C-244.50197754 519.2007988 -244.92920609 518.63650665 -245.36938095 518.05511475 C-247.33242808 515.45914044 -249.29149779 512.86018979 -251.25053024 510.26118469 C-251.92249435 509.37378601 -252.59445847 508.48638733 -253.28678513 507.57209778 C-259.05537625 499.90939495 -264.23276817 492.03796104 -269.07474899 483.76509094 C-269.56604294 482.92768372 -270.05733688 482.09027649 -270.56351852 481.22749329 C-272.15964687 478.49515473 -273.7450929 475.75698358 -275.32474899 473.01509094 C-275.80838913 472.17599182 -276.29202927 471.3368927 -276.79032516 470.47236633 C-280.46171557 464.02085848 -283.80730807 457.42929102 -287.07474899 450.76509094 C-293.66522117 450.49440007 -300.25594634 450.23054638 -306.8468132 449.96965027 C-310.38887447 449.82752572 -313.93065049 449.67935229 -317.47245407 449.53096008 C-328.91513125 449.06490398 -340.33271797 448.70290435 -351.78568649 448.72602844 C-353.74752108 448.72002956 -355.70935399 448.7134526 -357.67118454 448.70625305 C-360.44352735 448.69664961 -363.211267 448.70156566 -365.98310471 448.75730896 C-381.8181785 449.07422598 -381.8181785 449.07422598 -387.64896774 443.53071594 C-392.26386239 438.05976323 -393.15171436 432.6133593 -393.01224899 425.64009094 C-391.41313807 420.73615077 -389.13567888 416.33128965 -384.97826767 413.171875 C-381.29422882 411.38692105 -378.07414372 411.36613086 -374.07157516 411.42451477 C-373.28080582 411.42407669 -372.49003647 411.42363861 -371.67530441 411.42318726 C-369.07252068 411.42527025 -366.47038837 411.4485778 -363.86771774 411.47212219 C-362.05882748 411.47771989 -360.24993266 411.48198917 -358.44103622 411.48498535 C-353.68819672 411.49642041 -348.93563379 411.52587606 -344.18290329 411.55909729 C-339.32983262 411.58982705 -334.47671711 411.6034969 -329.62357712 411.61860657 C-320.1071798 411.65074704 -310.59098743 411.70192722 -301.07474899 411.76509094 C-301.27763535 410.9347081 -301.4805217 410.10432526 -301.68955612 409.2487793 C-302.4513249 406.12617721 -303.21100627 403.00307629 -303.96934128 399.87963867 C-304.29607916 398.53566933 -304.62361461 397.1918936 -304.95200729 395.84832764 C-308.57778137 381.00924295 -310.92775678 366.38559418 -312.65287399 351.21430969 C-312.85904343 349.41383179 -312.85904343 349.41383179 -313.0693779 347.57698059 C-313.40555648 344.63980291 -313.74065394 341.70250622 -314.07474899 338.76509094 C-314.8695133 338.76638976 -315.66427761 338.76768858 -316.48312569 338.76902676 C-335.84763824 338.79826543 -355.21178107 338.78881112 -374.57625008 338.73662472 C-383.94092243 338.71231426 -393.30527168 338.70095944 -402.66996384 338.72041321 C-410.83505406 338.73734177 -418.99969221 338.72964683 -427.16472304 338.69274336 C-431.48569946 338.67406422 -435.80591185 338.66747172 -440.12688446 338.69039726 C-444.20011047 338.71161851 -448.27194202 338.69973636 -452.345047 338.66324615 C-453.83406198 338.65559815 -455.32319475 338.65970029 -456.81212997 338.67690468 C-466.26602863 338.77771006 -473.04900496 337.6036786 -480.07474899 330.76509094 C-481.7405976 327.43339372 -481.51138146 323.79903084 -481.63724899 320.14009094 C-481.69976852 319.35763 -481.76228806 318.57516907 -481.82670212 317.76899719 C-481.95370883 313.12747931 -481.1443432 310.12006842 -478.10599899 306.55073547 C-471.85006462 300.65536165 -463.82249363 301.55450631 -455.75834274 301.54634094 C-454.01126351 301.51612088 -452.26423963 301.48254089 -450.51728439 301.44584656 C-445.82192486 301.35733235 -441.12732703 301.31784145 -436.43127441 301.28824615 C-431.55153052 301.24953751 -426.67252211 301.16644243 -421.79325485 301.08979797 C-409.88742228 300.91429309 -397.98164105 300.82849667 -386.07474899 300.76509094 C-385.14191589 300.75984909 -384.20908279 300.75460724 -383.24798203 300.74920654 C-360.52300097 300.62258308 -337.7996415 300.62014438 -315.07474899 300.76509094 C-315.01312073 299.89014481 -314.95149246 299.01519867 -314.88799667 298.11373901 C-314.80339691 296.95655869 -314.71879715 295.79937836 -314.63163376 294.60713196 C-314.54938049 293.46406082 -314.46712723 292.32098969 -314.38238144 291.14328003 C-313.93651284 286.24708504 -313.02754018 281.50852315 -312.01224899 276.70259094 C-311.81159836 275.73527039 -311.61094772 274.76794983 -311.40421677 273.77131653 C-309.31599693 263.79350672 -307.11054184 253.84329573 -304.89115524 243.89399719 C-304.51905357 242.22315549 -304.14702352 240.55229783 -303.77506638 238.88142395 C-302.87578355 234.84246248 -301.97554101 230.80371608 -301.07474899 226.76509094 C-302.67968468 226.7950692 -302.67968468 226.7950692 -304.3170433 226.82565308 C-314.42391884 227.0084763 -324.53045692 227.14319068 -334.6386137 227.23140049 C-339.83490731 227.27827695 -345.02986118 227.3418058 -350.22538376 227.44404602 C-355.24406179 227.54218273 -360.26145541 227.59572031 -365.28101921 227.61898613 C-367.19126283 227.63555488 -369.10143984 227.66791229 -371.01113319 227.71666145 C-387.83934559 228.12896632 -387.83934559 228.12896632 -393.75663376 222.5226593 C-396.42342049 219.3369641 -397.51435883 216.86829174 -398.07474899 212.76509094 C-398.27970993 211.74028625 -398.27970993 211.74028625 -398.48881149 210.69477844 C-399.07099603 205.02386984 -397.32020176 202.22745798 -393.76224899 197.82759094 C-387.78229399 190.98097579 -387.78229399 190.98097579 -384.12825108 190.51899529 C-383.38620772 190.52083887 -382.64416437 190.52268246 -381.87963486 190.52458191 C-381.0256813 190.52183258 -380.17172775 190.51908325 -379.29189682 190.51625061 C-377.89143867 190.52703644 -377.89143867 190.52703644 -376.46268845 190.53804016 C-374.98436539 190.53760208 -374.98436539 190.53760208 -373.47617722 190.53715515 C-370.21337249 190.53855028 -366.95079515 190.55412022 -363.68803024 190.56977844 C-361.42787425 190.57350792 -359.16771663 190.5763552 -356.90755844 190.57835388 C-350.95465772 190.58599547 -345.00185437 190.60564853 -339.04899216 190.62776184 C-332.97621096 190.64820892 -326.90341405 190.65735317 -320.83060837 190.66743469 C-308.91194576 190.68889388 -296.99335547 190.72303621 -285.07474899 190.76509094 C-284.89435074 190.04720901 -284.71395248 189.32932709 -284.52808762 188.58969116 C-283.11288519 183.1525068 -281.59983454 178.18879689 -278.95756149 173.19868469 C-278.35710007 172.0626178 -277.75663864 170.9265509 -277.13798141 169.75605774 C-276.49318806 168.57086929 -275.84708292 167.38639368 -275.19974899 166.20259094 C-274.86971878 165.59114227 -274.53968857 164.9796936 -274.19965744 164.34971619 C-269.21788191 155.1435413 -263.7628787 146.48167075 -257.36771774 138.18305969 C-254.34462762 134.24168033 -251.61041578 130.12784127 -248.86893845 125.9889679 C-248.40684227 125.29347084 -247.94474609 124.59797379 -247.468647 123.88140106 C-246.33624714 122.1766949 -245.20534685 120.47099277 -244.07474899 118.76509094 C-245.19574493 118.76731155 -246.31674088 118.76953217 -247.47170639 118.77182007 C-273.40885619 118.82160063 -299.34565295 118.83056607 -325.28281784 118.78390503 C-336.39090601 118.76533279 -347.49812412 118.76486999 -358.60607624 118.82596684 C-364.74442638 118.85841327 -370.88224704 118.86233665 -377.02064037 118.83864498 C-380.42308376 118.82657295 -383.82384466 118.82951399 -387.22608566 118.87156677 C-409.90694254 119.10629635 -409.90694254 119.10629635 -417.14896774 113.49165344 C-421.22756714 109.3459362 -422.84444806 105.52261424 -423.07474899 99.76509094 C-423.23974899 98.77509094 -423.40474899 97.78509094 -423.57474899 96.76509094 C-422.66280263 91.29341274 -419.34938831 86.41777151 -414.87082481 83.16378975 C-411.53149847 81.49333728 -409.26222164 81.36977369 -405.53675461 81.33512878 C-404.89311923 81.32510397 -404.24948385 81.31507916 -403.58634436 81.30475056 C-401.43574816 81.27480616 -399.28558553 81.26583592 -397.13480759 81.25679016 C-395.58808065 81.23953642 -394.0413678 81.22097845 -392.49467087 81.20121765 C-388.28565611 81.1510781 -384.0766713 81.11903904 -379.8674655 81.08998251 C-375.41916057 81.05599447 -370.97105457 81.00477168 -366.52289963 80.95530701 C-358.04975473 80.86358903 -349.57654461 80.78640305 -341.10320818 80.71481049 C-331.63368504 80.6343604 -322.16430575 80.54130155 -312.69492674 80.44551992 C-309.91594009 80.41752696 -307.13694874 80.39004882 -304.35795593 80.36267471 C-295.31305309 80.27299767 -286.26829603 80.17631687 -277.22361374 80.06654358 C-273.77132704 80.02527388 -270.31903476 79.9844915 -266.86674118 79.94380188 C-266.03664772 79.93382722 -265.20655425 79.92385257 -264.35130644 79.91357565 C-255.21359945 79.80575118 -246.0822316 79.74913657 -236.94387245 79.84360313 C-232.8853881 79.88301974 -228.82738484 79.8864785 -224.76873779 79.88325882 C-222.24621944 79.89717308 -219.73017494 79.9681955 -217.20887375 80.04289246 C-208.05728553 80.12057734 -202.74534858 78.09945208 -196.18549919 71.91844368 C-194.80232778 70.54690206 -193.4378733 69.15655841 -192.07474899 67.76509094 C-190.73418363 66.61417069 -189.38104666 65.47714783 -188.00053024 64.37446594 C-187.40925339 63.90033264 -186.81797653 63.42619934 -186.2087822 62.93769836 C-175.60437508 54.65571468 -164.08046216 48.11663537 -152.33524704 41.59590149 C-149.52065664 40.01547368 -146.73622667 38.39168582 -143.95432663 36.75474548 C-136.85169329 32.6035803 -129.59250404 29.10139803 -122.02518845 25.8820343 C-120.13642038 25.07723787 -118.25486715 24.25711581 -116.37357712 23.43501282 C-107.75206834 19.70482024 -99.02822352 16.60775121 -90.07474899 13.76509094 C-88.93586227 13.39883606 -87.79697556 13.03258118 -86.62357712 12.65522766 C-78.19851689 9.96763896 -69.70055305 7.69799468 -61.07474899 5.76509094 C-59.70006958 5.45668274 -59.70006958 5.45668274 -58.29761887 5.14204407 C-38.7498588 0.89876497 -19.92879112 -0.13070175 0 0 Z " fill="#34C66E" transform="translate(617.0747489929199,213.2349090576172)"/>
<path d="M0 0 C2.77209768 0.05502347 5.54105163 0.08162926 8.31347656 0.09277344 C40.76941207 0.94515154 76.57264396 12.00530459 104.24169922 28.74267578 C106.94392972 30.3349465 109.71355702 31.74103583 112.51879883 33.140625 C121.63515658 37.71866129 129.52635322 43.74293957 137.49316406 50.06933594 C138.31421631 50.71467285 138.31421631 50.71467285 139.15185547 51.37304688 C144.34060113 55.4605545 149.25187002 59.66217269 153.84082031 64.41308594 C155.53073942 66.10700013 157.29376312 67.64681913 159.11816406 69.19433594 C170.1295568 78.80273269 179.01924953 88.93893583 187.15136719 101.08691406 C189.03817366 103.8745539 191.0260306 106.58799236 192.99316406 109.31933594 C194.51418668 111.55854338 196.01419272 113.8029074 197.49316406 116.06933594 C197.93063965 116.73126953 198.36811523 117.39320313 198.81884766 118.07519531 C222.59804901 154.7399632 231.17186318 198.03363204 232.49316406 241.06933594 C232.56313328 242.65398655 232.63339407 244.23862435 232.70410156 245.82324219 C233.88944792 292.46206224 217.3776935 348.91715438 186.95019531 385.09643555 C184.58230286 387.96148189 182.39286417 390.90680013 180.19238281 393.90136719 C174.34082662 401.64013001 167.59745702 408.45344465 160.72607422 415.2824707 C158.61571645 417.38427363 156.52480921 419.50418597 154.43457031 421.62597656 C146.91590109 429.18365199 139.62873099 435.51740511 130.49316406 441.06933594 C129.10913731 442.02778461 127.7332069 442.99810053 126.36816406 443.98339844 C97.41478471 464.43506681 62.43416305 478.39702321 27.38549805 483.63061523 C25.42203142 483.92844165 23.46296431 484.25653005 21.5090332 484.61157227 C12.17725625 486.24669262 3.00316977 486.51152162 -6.44433594 486.50683594 C-7.28232727 486.50723877 -8.1203186 486.5076416 -8.98370361 486.50805664 C-36.0211559 486.43420296 -62.5708473 483.47992998 -88.00341797 473.96118164 C-90.42554114 473.09829731 -92.84702993 472.40431513 -95.32714844 471.72949219 C-101.93310598 469.792994 -107.97664588 466.67206502 -114.13183594 463.63183594 C-115.30746094 463.05884766 -116.48308594 462.48585938 -117.69433594 461.89550781 C-119.9692157 460.7849064 -122.24131628 459.66858961 -124.51025391 458.54589844 C-126.27306144 457.67727696 -128.04093028 456.81858107 -129.81982422 455.98339844 C-135.01915607 453.51617919 -139.52005404 450.37227751 -144.13183594 446.94433594 C-145.71601269 445.77964932 -147.30065343 444.61559355 -148.88574219 443.45214844 C-150.05387451 442.59218262 -150.05387451 442.59218262 -151.24560547 441.71484375 C-153.3025857 440.21796978 -155.37762938 438.75587985 -157.47167969 437.31152344 C-163.66665974 433.0312505 -169.29229396 428.63668551 -174.49902344 423.15136719 C-176.41826444 421.16118148 -178.40435124 419.36263171 -180.50683594 417.56933594 C-188.78036785 410.40766207 -195.71564191 402.59056753 -202.20654297 393.81396484 C-203.49475518 392.08554493 -204.80815791 390.37920405 -206.12792969 388.67480469 C-226.66301442 361.86511073 -240.14489325 331.76894887 -247.75170898 299.04418945 C-248.47892313 296.02502284 -248.47892313 296.02502284 -249.54663086 292.96142578 C-261.72154405 256.291194 -255.70019683 203.69184279 -242.30859375 168.31298828 C-241.48159439 165.99869957 -240.80465334 163.67318898 -240.13964844 161.30761719 C-234.88781667 143.46759641 -225.7993937 126.47603344 -215.50683594 111.06933594 C-214.77470621 109.94066241 -214.04291667 108.81176811 -213.31152344 107.68261719 C-211.12961223 104.40975038 -208.86303552 101.21765864 -206.50683594 98.06933594 C-206.06694336 97.47991211 -205.62705078 96.89048828 -205.17382812 96.28320312 C-190.44554063 76.8709366 -172.23223628 57.28172325 -151.46826172 44.32861328 C-149.14735055 42.83853863 -146.90546827 41.25396098 -144.65527344 39.65917969 C-120.04077635 22.35488044 -93.54245816 12.21970208 -64.31396484 5.7644043 C-61.44423195 5.09562854 -61.44423195 5.09562854 -58.46850586 4.03881836 C-40.3322552 -1.89795943 -18.90788944 -0.37843811 0 0 Z M-56.50683594 41.06933594 C-58.31083089 41.46922621 -60.12224245 41.83759093 -61.94042969 42.16699219 C-76.59027243 44.9407226 -89.28916553 50.25152994 -102.50683594 57.06933594 C-103.49925293 57.58061035 -104.49166992 58.09188477 -105.51416016 58.61865234 C-119.27358485 65.81869111 -131.64350669 74.05782763 -143.50683594 84.06933594 C-144.38597656 84.80023438 -145.26511719 85.53113281 -146.17089844 86.28417969 C-148.69494082 88.47428519 -151.10047801 90.74975375 -153.50683594 93.06933594 C-154.54541748 94.05329346 -154.54541748 94.05329346 -155.60498047 95.05712891 C-165.4833542 104.45204532 -174.40009731 113.59035493 -181.41503906 125.31152344 C-182.5001959 127.05864536 -183.65779464 128.71804579 -184.86621094 130.38183594 C-190.60797379 138.35733643 -195.07638231 146.80218142 -199.38183594 155.63183594 C-199.9294458 156.74333008 -200.47705566 157.85482422 -201.04125977 159 C-204.77777292 166.84535201 -207.28151886 174.68475195 -209.50683594 183.06933594 C-209.95499513 184.53383464 -210.41264994 185.99551299 -210.88574219 187.45214844 C-216.44362437 205.02459441 -217.99717476 222.35942914 -217.84301758 240.73706055 C-217.81905435 243.79274209 -217.82253528 246.84756617 -217.82910156 249.90332031 C-217.82353352 251.8792369 -217.81642918 253.8551499 -217.80761719 255.83105469 C-217.80852859 256.72805588 -217.80944 257.62505707 -217.81037903 258.54924011 C-217.75399886 263.61067839 -217.21740139 268.22190025 -215.97839355 273.13398743 C-215.29993572 275.91848779 -215.0147738 278.72412938 -214.69433594 281.56933594 C-213.50703144 290.05267189 -211.16373062 297.95151109 -208.50683594 306.06933594 C-208.24692871 306.88901855 -207.98702148 307.70870117 -207.71923828 308.55322266 C-191.22997494 359.97125082 -152.67604168 403.24583129 -105.04589844 428.01464844 C-92.61531049 434.37726908 -80.15189551 439.92280335 -66.50683594 443.06933594 C-65.40597656 443.35808594 -64.30511719 443.64683594 -63.17089844 443.94433594 C-60.28913191 444.69925714 -57.41319654 445.41549929 -54.50683594 446.06933594 C-53.85678589 446.23077591 -53.20673584 446.39221588 -52.5369873 446.55854797 C-45.01824819 448.27633485 -37.66093143 448.42583315 -29.97167969 448.47558594 C-28.94001773 448.48406807 -28.94001773 448.48406807 -27.88751411 448.49272156 C-24.23415791 448.52254858 -20.58095589 448.54109626 -16.92749023 448.54980469 C-13.96506501 448.55850231 -11.00382852 448.58601825 -8.04174805 448.63183594 C10.96842893 448.92010411 28.11990828 447.56175347 46.49316406 442.06933594 C47.9739318 441.66121886 49.45585029 441.25723968 50.93920898 440.85864258 C76.60215036 433.80516807 104.06000787 420.11589554 122.73413086 400.83422852 C124.47030739 399.09226875 126.26904683 397.49174409 128.13769531 395.89355469 C147.65400768 378.90813098 161.96251565 360.47190721 173.38183594 337.31445312 C174.42234557 335.21240422 175.4932219 333.12885611 176.57128906 331.04589844 C180.90291836 322.48607543 184.21252862 313.64538733 187.30566406 304.56933594 C187.67892822 303.49039062 188.05219238 302.41144531 188.43676758 301.29980469 C194.37368037 283.30181173 195.08456433 265.82134159 195.10400391 247.03613281 C195.10819796 244.24563611 195.13570487 241.45703377 195.18603516 238.66699219 C195.92513701 196.90968381 183.21515136 149.03111883 154.01269531 117.77636719 C151.36907317 114.93601038 149.14782252 111.95721875 146.86816406 108.81933594 C137.78622512 96.71503768 126.69318323 85.86455643 114.0859375 77.49414062 C111.22646806 75.58777915 108.46068143 73.57805794 105.70581055 71.52256775 C97.88621119 65.74112084 89.75211199 61.1983597 80.99316406 57.00683594 C80.29016174 56.66649323 79.58715942 56.32615051 78.862854 55.97549438 C64.20950342 48.92775813 49.28592614 43.93137587 33.49316406 40.06933594 C32.45579102 39.78002197 31.41841797 39.49070801 30.34960938 39.19262695 C17.95208865 36.13301718 5.24155727 36.57817099 -7.44921875 36.62329102 C-10.15461097 36.63249635 -12.85914139 36.62551075 -15.56445312 36.6027832 C-29.86167007 36.48319689 -42.90538093 36.42871965 -56.50683594 41.06933594 Z " fill="#34C66F" transform="translate(634.5068359375,289.9306640625)"/>
<path d="M0 0 C4.82010991 3.74285859 6.16927905 7.6276416 7 13.515625 C7.60892751 19.26645802 7.8998078 25.01645482 8.01953125 30.796875 C9.03789063 30.96960938 10.05625 31.14234375 11.10546875 31.3203125 C19.66735611 32.95319184 27.07482589 35.41200253 34.70703125 39.671875 C35.44808105 40.08228027 36.18913086 40.49268555 36.95263672 40.91552734 C42.86126894 44.3609943 47.96651523 47.67898717 50.21875 54.34765625 C51.15029835 61.52430473 51.66752308 66.77698818 47.76953125 73.0625 C43.57812825 77.21647976 38.96043619 78.30041828 33.20703125 78.484375 C25.01953125 77.796875 25.01953125 77.796875 8.01953125 69.796875 C8.34953125 91.906875 8.67953125 114.016875 9.01953125 136.796875 C12.31953125 137.456875 15.61953125 138.116875 19.01953125 138.796875 C42.03797328 147.55863521 54.16066635 161.71885959 64.10253906 183.52954102 C70.25478233 198.74143752 67.48754312 223.46101279 61.3515625 238.2109375 C57.69556449 245.87898467 52.53766259 252.39791093 47.01953125 258.796875 C46.52235596 259.40515137 46.02518066 260.01342773 45.51293945 260.64013672 C36.02072203 272.14259724 22.35762273 277.87001073 9.01953125 283.796875 C9.01695312 284.96863281 9.014375 286.14039063 9.01171875 287.34765625 C8.81964681 298.01844572 7.99600593 306.50799369 0.30078125 314.60546875 C-4.64455924 318.47163536 -9.79735774 318.37370407 -15.84765625 317.63671875 C-21.95004937 316.00079042 -25.35403118 312.33561318 -28.6796875 307.14453125 C-30.37769203 302.77459166 -30.312139 299.05750293 -30.16796875 294.421875 C-30.15443359 293.59042969 -30.14089844 292.75898437 -30.12695312 291.90234375 C-30.09185934 289.86690434 -30.03806103 287.83180209 -29.98046875 285.796875 C-30.59325684 285.76166748 -31.20604492 285.72645996 -31.83740234 285.69018555 C-50.81767654 284.45690893 -73.06480189 276.6320306 -86.71484375 263.07421875 C-89.69730562 257.70762841 -89.26703129 249.7150627 -87.98046875 243.796875 C-84.95879781 238.48853416 -80.66051023 234.95370094 -74.79296875 233.171875 C-68.76337892 232.57880059 -64.43113515 233.82919163 -59.0234375 236.44921875 C-57.91033203 236.97837891 -56.79722656 237.50753906 -55.65039062 238.05273438 C-53.33980804 239.16850084 -51.02990473 240.28567513 -48.72070312 241.40429688 C-47.60373047 241.93474609 -46.48675781 242.46519531 -45.3359375 243.01171875 C-44.33199951 243.49761475 -43.32806152 243.98351074 -42.29370117 244.48413086 C-38.13174764 246.23403296 -38.13174764 246.23403296 -29.98046875 247.796875 C-29.98046875 218.426875 -29.98046875 189.056875 -29.98046875 158.796875 C-33.28046875 158.136875 -36.58046875 157.476875 -39.98046875 156.796875 C-43.16015625 155.27563477 -43.16015625 155.27563477 -45.85546875 153.48828125 C-46.85602295 152.82908691 -47.85657715 152.16989258 -48.88745117 151.49072266 C-49.90814697 150.78737793 -50.92884277 150.0840332 -51.98046875 149.359375 C-53.04048096 148.6379834 -54.10049316 147.9165918 -55.19262695 147.17333984 C-65.93513494 139.69761297 -73.95564589 132.12307311 -78.98046875 119.796875 C-79.28597656 119.07371094 -79.59148438 118.35054688 -79.90625 117.60546875 C-86.45804439 101.24150835 -83.66299509 82.4800362 -77.25585938 66.55224609 C-68.99002451 48.69462506 -53.56514822 38.09987392 -35.984375 30.50390625 C-33.98046875 29.796875 -33.98046875 29.796875 -31.98046875 29.796875 C-31.91730469 28.62511719 -31.85414063 27.45335937 -31.7890625 26.24609375 C-31.09002996 16.44711818 -30.02750342 8.28992453 -22.98046875 0.796875 C-17.00588119 -3.44013676 -6.52816764 -2.63522363 0 0 Z " fill="#33C66E" transform="translate(634.98046875,375.203125)"/>
<path d="M0 0 C5.04081053 2.60267369 7.26467314 6.00888766 9.203125 11.2578125 C10.36216214 16.42802721 10.70518138 20.27852781 8.671875 25.2421875 C5.52002085 30.07246805 2.45985927 33.35831626 -3.0625 35.25 C-10.26562479 36.70162209 -15.12020682 35.30578887 -21.203125 31.44921875 C-24.61733839 28.69558143 -25.84366393 26.85842715 -26.64453125 22.4609375 C-27.02300892 16.53362917 -27.21921859 11.82113913 -23.83203125 6.76171875 C-16.05623357 -0.99163795 -10.87245983 -2.23634841 0 0 Z " fill="#34C66F" transform="translate(846,302)"/>
</svg>
